
<?xml version="1.0" encoding="UTF-8" standalone="no"?>
<svg width="800" height="600" viewBox="0 0 800 600" xmlns="http://www.w3.org/2000/svg">
  <g>
    <rect width="100%" height="100%" fill="#FFFDF7"/>
    <g transform="translate(100, 50)">
      <!-- Gear Icon -->
      <path d="M350 100 C 430 100, 490 160, 490 240 C 490 320, 430 380, 350 380 C 270 380, 210 320, 210 240 C 210 160, 270 100, 350 100" fill="#FFA500" stroke="none"/>
      
      <!-- Car Silhouette -->
      <path d="M250 200 L 450 200 L 450 400 L 250 400 Z" fill="#1A365D"/>
      
      <!-- Mechanic Figure -->
      <g transform="translate(300, 250)">
        <rect x="-30" y="-40" width="60" height="80" fill="#FF6B35"/>
        <circle cx="0" cy="-60" r="20" fill="#FFD700"/>
      </g>
      
      <!-- Wrenches -->
      <path d="M200 150 L 230 150 L 230 330 L 200 330 Z" fill="#FFA500" transform="rotate(-45, 215, 240)"/>
      <path d="M470 150 L 500 150 L 500 330 L 470 330 Z" fill="#FFA500" transform="rotate(45, 485, 240)"/>
      
      <!-- Text -->
      <text x="350" y="450" font-family="Arial" font-size="36" fill="#1A365D" text-anchor="middle" font-weight="bold">EURO DENT EXPERTS</text>
      <text x="350" y="500" font-family="Arial" font-size="24" fill="#1A365D" text-anchor="middle">GESTÃO DE SERVIÇOS AUTOMOTIVOS</text>
    </g>
  </g>
</svg>
